<svg height="512" viewBox="0 0 128 128" width="512" xmlns="http://www.w3.org/2000/svg" xmlns:xlink="http://www.w3.org/1999/xlink"><linearGradient id="a" gradientUnits="userSpaceOnUse" x1="97.478" x2="31.56" y1="110.023" y2="44.104"><stop offset="0" stop-color="#a6d12b"/><stop offset="1" stop-color="#ffd92d"/></linearGradient><path d="m105.551 85.75v1a1.75 1.75 0 0 1 -3.5 0v-1a1.75 1.75 0 0 1 3.5 0zm-.915-29.606a1.749 1.749 0 0 0 -1.788.071l-15.211 9.885v-4.992a5.024 5.024 0 0 0 -5.018-5.018h-4.9a1.75 1.75 0 1 0 0 3.5h4.9a1.52 1.52 0 0 1 1.518 1.518v36.692a1.52 1.52 0 0 1 -1.518 1.518h-55.152a1.52 1.52 0 0 1 -1.518-1.518v-36.692a1.52 1.52 0 0 1 1.518-1.518h6.033a1.75 1.75 0 0 0 0-3.5h-6.033a5.024 5.024 0 0 0 -5.018 5.018v36.692a5.024 5.024 0 0 0 5.018 5.018h55.152a5.024 5.024 0 0 0 5.018-5.018v-4.989l15.211 9.881a1.749 1.749 0 0 0 2.7-1.467v-8.392a1.75 1.75 0 0 0 -3.5 0v5.167l-14.411-9.362v-18.369l14.414-9.363v18.548a1.75 1.75 0 0 0 3.5 0v-21.772a1.752 1.752 0 0 0 -.915-1.538zm-65.011 3.446h1.125a1.75 1.75 0 0 0 0-3.5h-1.125a1.75 1.75 0 0 0 0 3.5zm31.4-9.332a9.932 9.932 0 1 1 -16.671 9.332h-7.979a1.75 1.75 0 0 1 0-3.5h7.778a9.917 9.917 0 0 1 16.87-5.832zm-7.025.591a6.432 6.432 0 1 0 4.548 1.884 6.39 6.39 0 0 0 -4.548-1.884zm14.96-6.049a1.749 1.749 0 0 0 0-2.475 21.157 21.157 0 0 0 -29.92 0 1.75 1.75 0 1 0 2.475 2.475 17.658 17.658 0 0 1 24.97 0 1.751 1.751 0 0 0 2.475 0zm-2.025-13.2a28.794 28.794 0 0 1 7.4 5.356 1.75 1.75 0 1 0 2.475-2.475 32.286 32.286 0 0 0 -8.3-6.006 1.75 1.75 0 1 0 -1.576 3.125zm-34.506 5.86a1.742 1.742 0 0 0 1.237-.512 28.814 28.814 0 0 1 28.048-7.378 1.75 1.75 0 1 0 .935-3.372 32.31 32.31 0 0 0 -31.458 8.275 1.75 1.75 0 0 0 1.238 2.987z" fill="url(#a)"/></svg>